<svg xmlns="http://www.w3.org/2000/svg" xmlns:xlink="http://www.w3.org/1999/xlink" id="Layer_1" x="0px" y="0px" viewBox="-8.8 200.8 280.6 119.1" style="enable-background:new -8.8 200.8 280.6 119.1;" xml:space="preserve"> <style type="text/css"> .st0{fill:#A3007D;} </style> <g> <path class="st0" d="M234.4,227.3c0-3.3-2.1-3.8-4-3.8c-4.2,0-16.9,1.7-40.8,16.7c-15.2-10.3-26.8-13-43.6-13c-1.1,0-5,0.5-6,0.5 c-1.4,0-2.6-0.4-4-0.4s-2.6,1.8-2.6,3.8c0,1.8,0.9,3.5,2.3,3.7c0.2,0,2,0.4,4.3,0.4c0.9,0,4.6-0.5,6-0.5c13.3,0,24.5,1.9,37,9.4 c-13.3,7.5-21.2,12.2-35.5,12.2c-5.5,0-11.2-3.1-11.3-3.1c-0.3-0.2-0.7-0.2-1-0.2c-1.5,0-2.7,1.7-2.7,3.7c0,1.4,0.7,2.9,1.7,3.5 c0.3,0.1,5.3,3.7,13.3,3.7c16.6,0,26.9-5.8,42-15.4c9.9,6.9,20,14.1,31.3,14.1c2.4,0,4.8-0.1,7.2-0.4c1.6-0.2,2.5-1.9,2.5-4.1 c-0.1-2.3-1.4-3.6-2.9-3.5c-2.3,0.1-4.5,0.4-6.8,0.4c-9.3,0-18.1-5.7-25-10.5c20.9-12.4,31.6-13.5,34.7-13.5c0.4,0,0.8,0.1,1.3,0.1 C233.3,231.1,234.4,229.4,234.4,227.3"></path> <path class="st0" d="M240,312.2c-9.6,0.5-17.4-6.1-17.9-16.5c-0.9-18.5,20.1-30.2,32.3-38.7c2,15.4,2.7,23.2,3,28 C257.9,296.7,252.5,311.5,240,312.2 M268.6,239.5c-0.7,0-1.3,0.2-1.9,0.6c0,0.1-1.9,0.3-7,4.6l-0.1-1.9c-0.2-4.7,0.1-11.8,0.3-14.5 v-0.5c-0.1-2.2-1.7-3.7-3.7-3.6c-1.4,0.1-2.8,1.2-3.2,2.7c-1,3.9-2.1,14.3-9,14.6c-1.1,0.1-1.4-2.6-1.5-3.2 c-0.3-3.3,0.4-6.9,1-10.1c0.1-0.4,0.2-0.8,0.2-1.2c-0.1-2-1.8-3.6-3.7-3.5c-1.5,0.1-2.8,1.2-3.2,2.8c-1,4.1-1.6,8.4-1.4,12.6 c0.4,5.1,3.6,10.4,8.8,10.2c3.4-0.2,7.2-3.1,8.8-6.5c-0.2,2.4,0.1,6.8,0.1,6.8c-15.4,10.9-39.3,23.4-38.1,46.7 c0.8,14.7,11.8,24.4,25.4,23.8c16.8-0.9,24.6-19.4,23.8-35.3c-0.3-6.8-1.5-16.9-3.5-32c7.4-5.1,9.5-6.6,9.8-6.8 c0.8-0.7,1.3-1.7,1.3-3C271.7,240.9,270.2,239.4,268.6,239.5"></path> <path class="st0" d="M113.4,252.5c-2,0-3.1-0.9-3.1-3.3c0-6.2,6.1-11.3,10.5-13.7c0.5,2.4,2.5,4.2,4.7,4.2c0.7,0,1.1-0.2,1.8-0.4 C126.2,244.3,118.3,252.5,113.4,252.5 M126.5,231.3c-1.2,0-2.3,0.1-2.9,0.4c-0.4-2.1-2-3.6-3.8-3.6c-0.5,0-1.1,0.1-1.5,0.3 c-7,3.3-14.2,10.7-14.2,19.7c0,6.7,4.4,11.4,10.4,11.4c8.2,0,19.1-11.3,19.1-20.5v-1C133,233.7,130.2,231.3,126.5,231.3"></path> <path class="st0" d="M103.6,255.1c0.1-2.2-1.3-4-3.1-4.2c-11-0.9-8-25.9-18.6-25.8c-5.6,0-24.2,23.2-28.2,23.3 c-5.1,0-5.9-25.3-15.3-25.2c-6.2,0.1-31.8,26.1-38.9,31.4c-0.2,0.3-0.5,0.4-1.1,0.8l1.3-3.7c1.8-5.3,6.5-14.5,6.4-21.3 C6,222-0.5,226-0.4,230.8c0,3.1-4.9,14.5-5.9,17.5c-0.8,2.3-2.5,6.5-2.5,9c0,4.2,2.9,7,6.1,7c1.5,0,3.3-0.5,5.5-2.2 c5.8-4.4,31.4-29.9,35.5-30.4c3.2-0.3,5.4,25.4,15.2,25.3c7.5-0.1,23.6-22.3,28.5-23.3c3.4,0,4.1,25.2,18.4,25.7 C102.3,259.4,103.5,257.5,103.6,255.1"></path> <g> <path d="M109.3,201h7.4v1.1h-3.1v7.8h-1.3v-7.8h-3L109.3,201L109.3,201z"></path> <path d="M123.6,201h1.3v8.9h-1.3V201z"></path> <path d="M139.7,201h1.2v8.9h-1.3V203l-2.7,3.4h-0.2l-2.8-3.4v6.9h-1.3V201h1.2l2.9,3.6L139.7,201z"></path> <path d="M148.5,201h5v1.1h-3.8v2.7h3.6v1.1h-3.6v2.8h3.9v1.1h-5.1L148.5,201L148.5,201z"></path> <path d="M162.9,206.1l-1-0.6c-0.6-0.4-1-0.7-1.3-1.1c-0.3-0.4-0.4-0.8-0.4-1.2c0-0.7,0.2-1.3,0.7-1.7c0.5-0.4,1.1-0.7,1.9-0.7 c0.7,0,1.4,0.2,2,0.6v1.4c-0.6-0.6-1.3-0.9-2.1-0.9c-0.4,0-0.8,0.1-1,0.3c-0.3,0.2-0.4,0.4-0.4,0.7c0,0.3,0.1,0.5,0.3,0.7 c0.2,0.2,0.5,0.5,0.9,0.7l1,0.6c1.1,0.6,1.6,1.5,1.6,2.5c0,0.7-0.2,1.3-0.7,1.7c-0.5,0.4-1.1,0.7-1.9,0.7c-0.9,0-1.7-0.3-2.4-0.8 v-1.6c0.7,0.9,1.5,1.3,2.4,1.3c0.4,0,0.7-0.1,1-0.3s0.4-0.5,0.4-0.8C164.1,207.1,163.7,206.6,162.9,206.1z"></path> <path d="M183.9,206.1l-1-0.6c-0.6-0.4-1-0.7-1.3-1.1c-0.3-0.4-0.4-0.8-0.4-1.2c0-0.7,0.2-1.3,0.7-1.7c0.5-0.4,1.1-0.7,1.9-0.7 c0.7,0,1.4,0.2,2,0.6v1.4c-0.6-0.6-1.3-0.9-2.1-0.9c-0.4,0-0.8,0.1-1,0.3c-0.3,0.2-0.4,0.4-0.4,0.7c0,0.3,0.1,0.5,0.3,0.7 c0.2,0.2,0.5,0.5,0.9,0.7l1,0.6c1.1,0.6,1.6,1.5,1.6,2.5c0,0.7-0.2,1.3-0.7,1.7c-0.5,0.4-1.1,0.7-1.9,0.7c-0.9,0-1.7-0.3-2.4-0.8 v-1.6c0.7,0.9,1.5,1.3,2.4,1.3c0.4,0,0.7-0.1,1-0.3s0.4-0.5,0.4-0.8C185.1,207.1,184.7,206.6,183.9,206.1z"></path> <path d="M202.3,210.4l-1.3,1.2c-0.4,0-0.8-0.1-1.2-0.2c-0.4-0.1-0.9-0.3-1.3-0.5s-1-0.6-1.8-1.1c-1.1-0.2-2-0.7-2.7-1.5 c-0.7-0.8-1-1.8-1-2.9c0-1.3,0.5-2.4,1.4-3.3s2-1.3,3.4-1.3s2.5,0.4,3.4,1.3s1.4,1.9,1.4,3.2c0,1.1-0.3,2.1-1,2.9 c-0.7,0.8-1.6,1.4-2.7,1.6l0.3,0.1c1,0.4,1.8,0.6,2.3,0.6C201.7,210.6,202,210.5,202.3,210.4z M197.7,202.1c-1,0-1.8,0.3-2.5,1 c-0.7,0.6-1,1.5-1,2.4c0,1,0.3,1.7,1,2.4s1.5,0.9,2.5,0.9s1.8-0.3,2.5-1c0.7-0.6,1-1.4,1-2.4s-0.3-1.8-1-2.4 S198.7,202.1,197.7,202.1z"></path> <path d="M216,201h1.3v5c0,0.7,0,1.2-0.1,1.5c-0.1,0.3-0.2,0.6-0.4,0.9c-0.1,0.2-0.3,0.4-0.5,0.6c-0.7,0.6-1.6,0.9-2.8,0.9 c-1.2,0-2.1-0.3-2.8-0.9c-0.2-0.2-0.4-0.4-0.5-0.6s-0.3-0.5-0.4-0.8s-0.1-0.9-0.1-1.6v-5h1.3v5c0,0.8,0.1,1.4,0.3,1.7 c0.2,0.3,0.5,0.6,0.9,0.8c0.4,0.2,0.8,0.3,1.4,0.3c0.8,0,1.4-0.2,1.8-0.6c0.2-0.2,0.4-0.5,0.5-0.8s0.2-0.8,0.2-1.5L216,201 L216,201z"></path> <path d="M227.2,200.9h0.9l4,8.9h-1.3l-1.2-2.6h-3.8l-1.1,2.6h-1.3L227.2,200.9z M229.1,206.1l-1.4-3.2l-1.3,3.2H229.1z"></path> <path d="M238.8,209.8V201h2.2c0.9,0,1.6,0.2,2.1,0.7c0.5,0.4,0.8,1,0.8,1.8c0,0.5-0.1,1-0.4,1.3c-0.3,0.4-0.6,0.7-1.1,0.8 c0.3,0.2,0.6,0.4,0.8,0.8c0.3,0.3,0.7,0.9,1.1,1.7c0.3,0.5,0.6,0.9,0.7,1.1l0.5,0.6H244l-0.4-0.6c0,0,0-0.1-0.1-0.1l-0.2-0.3 l-0.4-0.6l-0.4-0.7c-0.3-0.4-0.5-0.7-0.7-0.9c-0.2-0.2-0.4-0.4-0.6-0.5c-0.2-0.1-0.5-0.1-0.9-0.1H240v3.9h-1.2V209.8z M240.5,202.1h-0.4v2.8h0.5c0.6,0,1.1-0.1,1.3-0.2c0.2-0.1,0.4-0.3,0.6-0.5c0.1-0.2,0.2-0.5,0.2-0.8c0-0.3-0.1-0.5-0.2-0.8 c-0.1-0.2-0.4-0.4-0.6-0.5C241.5,202.1,241.1,202.1,240.5,202.1z"></path> <path d="M252.4,201h5v1.1h-3.8v2.7h3.6v1.1h-3.6v2.8h3.9v1.1h-5.1V201z"></path> </g> <g> <path class="st0" d="M240.5,319.8c16.8-0.9,24.6-19.4,23.8-35.3c-0.3-6.8-1.5-16.9-3.5-32l-6.4,4.5c2,15.4,2.7,23.2,3,28 c0.6,11.7-4.8,26.6-17.3,27.2"></path> </g> </g> </svg>